<svg width="40" height="33" viewBox="0 0 40 33" fill="none" xmlns="http://www.w3.org/2000/svg">
<path d="M8.30611 0C6.02429 0 4.3377 2.05193 4.41406 4.27557C4.48679 6.41375 4.39267 9.18358 3.71449 11.4418C3.03267 13.7072 1.88 14.3618 0 14.5455V18.1818C1.88 18.3655 3.03267 19.0201 3.71449 21.2855C4.39267 23.5437 4.48679 26.3153 4.41406 28.4517C4.3377 30.6753 6.02429 32.7273 8.30611 32.7273H31.6939C33.9757 32.7273 35.6659 30.6753 35.5895 28.4517C35.5168 26.3135 35.6109 23.5437 36.2891 21.2855C36.9709 19.0201 38.12 18.3655 40 18.1818V14.5455C38.12 14.3618 36.9726 13.7072 36.2926 11.4418C35.6144 9.18358 35.5168 6.41193 35.5895 4.27557C35.664 2.05193 33.9775 0 31.6939 0H8.30611ZM8.30611 3.63636H31.6939C31.703 3.63636 31.7299 3.635 31.7862 3.69318C31.8699 3.77864 31.9621 3.95301 31.9567 4.15483C31.8458 7.43301 32.1308 10.2384 32.8089 12.4893C33.3071 14.1439 34.0751 15.4345 35.1278 16.3672C34.0733 17.2999 33.3071 18.5851 32.8089 20.2415C32.1326 22.4924 31.8458 25.296 31.9567 28.576C31.9639 28.7778 31.8699 28.9504 31.7862 29.0376C31.7299 29.0922 31.7048 29.0909 31.6939 29.0909H8.30611C8.29702 29.0909 8.27369 29.0923 8.21733 29.0341C8.13369 28.9486 8.04142 28.7761 8.04688 28.5724C8.15778 25.2924 7.86742 22.4888 7.19105 20.2379C6.69469 18.5834 5.92844 17.2964 4.87571 16.3636C5.93026 15.4309 6.69824 14.1422 7.1946 12.4858C7.87097 10.2349 8.15778 7.43128 8.04688 4.15128C8.0396 3.95128 8.13551 3.77864 8.21733 3.69318C8.27369 3.635 8.29702 3.63636 8.30611 3.63636ZM12.7273 7.3331V25.4545H20.2805C22.2278 25.4545 23.8546 24.9666 24.9964 24.0447C26.1655 23.0938 26.7862 21.72 26.7862 20.0746C26.7862 18.1055 25.6978 16.5161 23.956 15.7706C25.136 14.9815 25.9339 13.6067 25.9339 12.1449C25.9339 10.7085 25.378 9.48952 24.3253 8.61861C23.3089 7.77679 21.8941 7.3331 20.245 7.3331H12.7273ZM16.5945 10.8203H19.5952C21.2352 10.8203 22.0668 11.443 22.0668 12.6776C22.0668 14.3612 20.416 14.7159 19.0305 14.7159H16.5945V10.8203ZM16.5909 17.8906H19.5703C22.5212 17.8906 22.8622 19.1417 22.8622 20.0817C22.8622 20.6326 22.8629 22.3047 19.7266 22.3047H16.5909V17.8906Z" fill="#434343"/>
</svg>
