<svg width="44" height="36" viewBox="0 0 44 36" fill="none" xmlns="http://www.w3.org/2000/svg">
<path d="M21.6 0C17.4762 0 13.6095 2.04823 11.2641 5.40703C5.01266 5.63743 0 10.7946 0 17.1C0 23.5512 5.2488 28.8 11.7 28.8H27V25.2H11.7C7.2342 25.2 3.6 21.5658 3.6 17.1C3.6 12.6342 7.2342 9 11.7 9L13.2469 9.08437L13.8023 8.12461C15.4079 5.33281 18.396 3.6 21.6 3.6C26.0496 3.6 29.7804 6.79112 30.477 11.1867L30.7477 12.9164L32.727 12.6562C32.916 12.631 33.1038 12.6 33.3 12.6C36.4662 12.6 39.0676 14.9544 39.5086 18H43.1086C42.6568 13.0878 38.6498 9.19063 33.6656 9.00703C32.1086 3.70063 27.2682 0 21.6 0ZM30.6 21.6V25.2H43.2V21.6H30.6ZM30.6 27V30.6H43.2V27H30.6ZM30.6 32.4V36H43.2V32.4H30.6Z" fill="#434343"/>
</svg>
