<svg width="39" height="40" viewBox="0 0 39 40" fill="none" xmlns="http://www.w3.org/2000/svg">
<path d="M29.8043 0L23.8366 8.62638H0V33.0281H15.6868V36.514H8.71489V40H26.1447V36.514H19.1728V33.0281H34.8596V11.1762L38.4545 5.98128L29.8043 0ZM30.6894 4.85106L33.6034 6.86638L25.5864 18.4545L24.3302 17.583L22.6723 16.4357L30.6894 4.85106ZM3.48596 12.1123H21.4264L17.8247 17.3174L17.8043 17.3243L18.0051 22.5736H6.97191V26.0596H18.1379V26.1038L18.2706 26.0596H18.4306V26.0051L26.4749 23.3226L26.4715 23.3021V23.2987L31.3736 16.2145V29.5421H3.48596V12.1123Z" fill="#434343"/>
</svg>
