<svg width="33" height="36" viewBox="0 0 33 36" fill="none" xmlns="http://www.w3.org/2000/svg">
<path d="M3.27273 0C1.46455 0 0 1.46455 0 3.27273V29.4545C0 31.2627 1.46455 32.7273 3.27273 32.7273H14.152L13.8611 32.2191C13.3604 31.3518 13.2532 30.3611 13.4872 29.4545H3.27273V22.9091H14.1552L15.392 20.7646C15.6588 20.3047 16.0169 19.9309 16.4244 19.6364H3.27273V13.0909H22.9091V16.3732C22.9451 16.3732 22.9802 16.3636 23.0146 16.3636H26.0763C26.1123 16.3636 26.1443 16.3732 26.1786 16.3732V3.27273C26.1786 1.46455 24.7141 0 22.9059 0H3.27273ZM3.27273 3.27273H22.9091V9.81818H3.27273V3.27273ZM23.0146 19.6364C22.8035 19.6364 22.6268 19.7945 22.6023 20.0039L22.4105 21.6594C21.6185 21.9344 20.9038 22.3516 20.282 22.8899L18.7479 22.2251C18.5548 22.1417 18.3316 22.2177 18.2269 22.4009L16.6928 25.0536C16.5881 25.2369 16.6361 25.4694 16.8047 25.5938L18.1246 26.5717C18.0477 26.9776 18 27.3927 18 27.8182C18 28.2436 18.0461 28.6573 18.1246 29.0614L16.8079 30.0426C16.6393 30.1686 16.5897 30.4011 16.696 30.5827L18.2269 33.2354C18.3316 33.4187 18.558 33.4915 18.7511 33.408L20.282 32.7464C20.9021 33.2832 21.6185 33.702 22.4105 33.9769L22.6023 35.6325C22.6252 35.8435 22.8035 36 23.0146 36H26.0763C26.2874 36 26.4641 35.8419 26.4886 35.6325L26.6804 33.9769C27.4724 33.702 28.1871 33.2848 28.8089 32.7464L30.343 33.4112C30.5361 33.4947 30.7593 33.4171 30.864 33.2354L32.3981 30.5827C32.5028 30.3995 32.4548 30.167 32.2862 30.0426L30.9663 29.0614C31.0448 28.6573 31.0909 28.2436 31.0909 27.8182C31.0909 27.3927 31.0448 26.9791 30.9663 26.5749L32.283 25.5938C32.4516 25.4677 32.5012 25.2353 32.3949 25.0536L30.864 22.4009C30.7593 22.2177 30.5329 22.1449 30.3398 22.2283L28.8089 22.8899C28.1888 22.3532 27.4724 21.9344 26.6804 21.6594L26.4886 20.0039C26.4657 19.7928 26.2874 19.6364 26.0763 19.6364H23.0146ZM24.5455 24.9545C26.1262 24.9545 27.4091 26.2358 27.4091 27.8182C27.4091 29.3989 26.1262 30.6818 24.5455 30.6818C22.9647 30.6818 21.6818 29.3989 21.6818 27.8182C21.6818 26.2358 22.9647 24.9545 24.5455 24.9545Z" fill="#434343"/>
</svg>
