<svg width="31" height="27" viewBox="0 0 31 27" fill="none" xmlns="http://www.w3.org/2000/svg">
<path d="M3.06827 0.235352C1.39136 0.235352 0 1.44905 0 2.91182V21.6471C0 23.1099 1.39136 24.3236 3.06827 24.3236H15.3413V21.6471H3.06827V2.91182H24.5461V13.6177H27.6144V2.91182C27.6144 1.44905 26.223 0.235352 24.5461 0.235352H3.06827ZM6.13653 5.58829V8.26476H9.2048V5.58829H6.13653ZM12.2731 5.58829V8.26476H15.3413V5.58829H12.2731ZM18.4096 5.58829V8.26476H21.4779V5.58829H18.4096ZM6.13653 10.9412V13.6177H9.2048V10.9412H6.13653ZM12.2731 10.9412V13.6177H15.3413V10.9412H12.2731ZM18.4096 10.9412V13.6177H21.4779V10.9412H18.4096ZM6.13653 16.2942V18.9706H9.2048V16.2942H6.13653ZM12.2731 16.2942V18.9706H15.3413V16.2942H12.2731ZM19.9437 16.2942V17.6324H18.4096V20.3089H19.9437V22.9854H18.4096V25.6618H19.9437V27.0001H23.012V25.6618H26.0803V27.0001H29.1485V25.6618H30.6827V22.9854H29.1485V20.3089H30.6827V17.6324H29.1485V16.2942H26.0803V17.6324H23.012V16.2942H19.9437ZM23.012 20.3089H26.0803V22.9854H23.012V20.3089Z" fill="#434343"/>
</svg>
