<svg width="26" height="32" viewBox="0 0 26 32" fill="none" xmlns="http://www.w3.org/2000/svg">
<path d="M4.8 0C2.1536 0 0 2.1536 0 4.8C0 6.88258 1.342 8.64342 3.2 9.30625V22.6938C1.342 23.3566 0 25.1174 0 27.2C0 29.8464 2.1536 32 4.8 32C7.4464 32 9.6 29.8464 9.6 27.2C9.6 25.1174 8.258 23.3566 6.4 22.6938V16.5938C7.02812 17.3499 7.71854 18.0338 8.44375 18.6406C10.9004 20.6962 13.72 21.9576 16.2625 22.2969C16.8959 24.2077 18.6796 25.6 20.8 25.6C23.4464 25.6 25.6 23.4464 25.6 20.8C25.6 18.1536 23.4464 16 20.8 16C18.7715 16 17.0421 17.2704 16.3406 19.0531C14.6091 18.7109 12.3582 17.7423 10.5 16.1875C8.44559 14.4685 6.85435 12.155 6.48437 9.28125C8.29935 8.59587 9.6 6.85171 9.6 4.8C9.6 2.1536 7.4464 0 4.8 0Z" fill="#434343"/>
</svg>
