<svg width="40" height="38" viewBox="0 0 40 38" fill="none" xmlns="http://www.w3.org/2000/svg">
<path d="M20.1096 0C9.25734 0 0.461914 8.50547 0.461914 19C0.461914 29.4945 9.25734 38 20.1096 38C30.9619 38 39.7574 29.4945 39.7574 19C39.7574 8.50547 30.9619 0 20.1096 0ZM20.1096 3.8C28.7746 3.8 35.8278 10.6207 35.8278 19C35.8278 19.8906 35.7357 20.7664 35.5822 21.6125C35.0987 21.5086 34.3849 21.3824 33.5561 21.375C32.9421 21.3676 32.1746 21.4641 31.5299 21.5531C31.7525 20.8926 31.8983 20.1652 31.8983 19.4156C31.8983 17.5898 30.9773 15.8902 29.5037 14.4875C29.9105 13.0254 30.3096 10.5168 29.2581 9.5C26.1498 9.5 24.4306 11.6449 24.3462 11.7562C23.3868 11.5336 22.3968 11.4 21.3376 11.4C19.9792 11.4 18.6821 11.6375 17.4695 11.9937L17.8379 11.6969C17.8379 11.6969 16.111 9.38125 12.9259 9.38125C11.8131 10.4648 12.3196 13.2109 12.7417 14.6062C11.2375 15.9941 10.2858 17.6344 10.2858 19.4156C10.2858 20.0391 10.4393 20.6328 10.5928 21.1969C10.0479 21.1375 8.08308 20.9594 7.27722 20.9594C6.56346 20.9594 5.45827 21.1227 4.57566 21.3156C4.45286 20.5586 4.39146 19.7867 4.39146 19C4.39146 10.6207 11.4447 3.8 20.1096 3.8ZM7.27722 21.4344C8.05238 21.4344 10.4086 21.7016 10.7156 21.7312C10.7539 21.8352 10.7923 21.9316 10.8384 22.0281C9.99413 21.9539 8.35938 21.8426 7.27722 21.9687C6.55578 22.0504 5.63479 22.3027 4.82125 22.5031C4.75985 22.2656 4.68311 22.0355 4.63706 21.7906C5.49664 21.6125 6.62485 21.4344 7.27722 21.4344ZM33.5561 21.85C34.3389 21.8574 35.0527 21.9836 35.5208 22.0875C35.4978 22.2137 35.4287 22.3176 35.398 22.4437C34.8992 22.3324 34.0779 22.1691 33.1263 22.1469C32.6658 22.1395 31.929 22.1617 31.2843 22.2062C31.315 22.1469 31.3227 22.0875 31.3457 22.0281C32.0134 21.9391 32.8653 21.8426 33.5561 21.85ZM8.5052 22.3844C9.61039 22.3918 10.6465 22.466 11.084 22.5031C12.1124 24.3586 14.1923 25.7316 17.4081 26.3031C16.6176 26.7262 15.9115 27.3199 15.3819 28.025C14.9214 28.0621 14.4379 28.0844 13.9697 28.0844C12.6036 28.0844 11.7517 26.9043 11.0226 25.8875C10.2858 24.8707 9.38014 24.7594 8.8736 24.7C8.35938 24.6406 8.18286 24.9227 8.4438 25.1156C9.94041 26.2289 10.4777 27.55 11.084 28.7375C11.6289 29.8062 12.7724 30.4 14.0311 30.4H14.2767C14.2383 30.6078 14.2153 30.8008 14.2153 30.9937V33.0719C9.67946 31.298 6.22576 27.55 4.94405 22.9187C5.74992 22.7258 6.65555 22.5254 7.33862 22.4437C7.65329 22.4066 8.05238 22.377 8.5052 22.3844ZM33.1263 22.6219C34.0089 22.6441 34.7917 22.8074 35.2752 22.9187C34.1931 26.8523 31.5222 30.1254 27.9687 32.1219V30.9937C27.9687 29.3758 26.6487 27.2977 24.776 26.3031C27.8843 25.7539 29.9105 24.4402 30.9773 22.6812C31.7218 22.6293 32.5967 22.607 33.1263 22.6219ZM21.092 30.4C21.6293 30.4 22.0744 30.8305 22.0744 31.35V34.0812C21.4297 34.1629 20.7774 34.2 20.1096 34.2V31.35C20.1096 30.8305 20.5548 30.4 21.092 30.4ZM17.1625 32.3C17.6997 32.3 18.1449 32.7305 18.1449 33.25V34.0812C17.4848 33.9996 16.8171 33.8809 16.1801 33.725V33.25C16.1801 32.7305 16.6252 32.3 17.1625 32.3ZM25.0216 32.3C25.4974 32.3 25.9119 32.634 26.004 33.0719C25.3669 33.3242 24.7146 33.5543 24.0392 33.725V33.25C24.0392 32.7305 24.4843 32.3 25.0216 32.3Z" fill="#00357A"/>
</svg>
