<svg width="32" height="32" viewBox="0 0 32 32" fill="none" xmlns="http://www.w3.org/2000/svg">
<path d="M19.5398 0.00648264C19.4631 0.017846 19.3863 0.0405727 19.3125 0.0746627C18.6873 0.384314 17.977 1.30475 17.8406 1.48656C17.8321 1.49792 17.8236 1.50929 17.8179 1.52065C17.1161 2.57176 16.741 3.80184 16.7268 5.08306C16.7183 6.04326 16.9058 6.99494 17.2865 7.91253C18.1731 10.0403 20.0143 11.8016 22.205 12.6255C22.2789 12.6511 22.3499 12.6766 22.4778 12.7221C22.4891 12.7278 22.5971 12.7618 22.6142 12.7647L22.6937 12.7931C22.8074 12.83 22.9239 12.867 23.0375 12.8897C23.6143 13.0062 24.1769 13.0715 24.7054 13.0885C24.7964 13.0885 24.8873 13.0914 24.9782 13.0914C28.9647 13.0914 30.5104 10.279 31.0247 9.34148C31.0759 9.25057 31.1128 9.17671 31.1469 9.13125C31.1469 9.12841 31.1469 9.12841 31.1497 9.12557C31.3742 8.79319 31.289 8.3415 30.9565 8.11423C30.6269 7.88981 30.1751 7.97503 29.9478 8.30741H29.945C28.8823 9.87271 27.0638 10.3471 24.5435 9.72215C24.3559 9.67669 24.1514 9.60567 23.9695 9.53749C23.7308 9.45227 23.4922 9.35284 23.2705 9.24489C22.8301 9.02614 22.4153 8.76479 22.0402 8.47502C19.8239 6.75631 18.9573 3.1797 20.253 1.11441C20.4263 0.838848 20.395 0.480902 20.1762 0.239431C20.0114 0.0576174 19.7728 -0.0247668 19.5398 0.00648264ZM13.0955 1.45531C12.9307 1.45247 12.763 1.50644 12.6266 1.62008C11.527 2.51494 10.4018 3.98081 10.3535 4.04047C10.3478 4.05184 10.3421 4.06036 10.3336 4.07172C8.34465 6.96654 8.19405 11.0858 9.95288 14.5658C10.2285 15.1169 10.541 15.6425 10.8735 16.1254L10.9729 16.2674C11.2542 16.6794 11.5696 17.1453 11.9731 17.5089C12.1123 17.668 12.2629 17.8214 12.4107 17.9691L12.4817 18.043L12.5414 18.1026C12.692 18.2475 12.8454 18.3952 13.0045 18.5373H13.0074C13.0188 18.5543 13.0358 18.5657 13.05 18.5799C13.229 18.739 13.4109 18.8895 13.6524 19.0799L13.7177 19.1282C13.9053 19.2787 14.0956 19.4208 14.2917 19.56C14.3116 19.5742 14.3315 19.5884 14.3514 19.6026C14.4196 19.648 14.4878 19.6906 14.5559 19.7389L14.6241 19.7844L14.7037 19.8355C14.8486 19.9321 14.9907 20.0202 15.1924 20.1367C15.3231 20.2162 15.4624 20.2957 15.5533 20.3412C15.5931 20.3639 15.6357 20.3867 15.7351 20.4406L15.9568 20.5571C15.9681 20.5628 16.0193 20.5855 16.0306 20.5912C16.1755 20.6651 16.3261 20.7361 16.4767 20.8043L16.7069 20.9065C16.8575 20.9719 17.0109 21.0344 17.1985 21.1054L17.2837 21.1366C17.2894 21.1423 17.3604 21.1679 17.3661 21.1707C17.5025 21.219 17.6417 21.2673 17.7809 21.3128L18.0992 21.4179C18.2583 21.4719 18.443 21.5344 18.6447 21.5684C19.6364 21.7332 20.5996 21.8184 21.5117 21.8184C21.6197 21.8184 21.7276 21.8156 21.8328 21.8156C29.8626 21.6395 31.951 14.8186 31.9709 14.7504C32.0703 14.4067 31.9084 14.0402 31.5845 13.8868C31.2605 13.7334 30.8741 13.8414 30.6724 14.1368C28.6379 17.1083 24.7907 18.364 20.8724 17.3299C20.6905 17.2845 20.5144 17.2333 20.2956 17.1623C20.2586 17.1509 20.2274 17.1396 20.1677 17.1168C20.0399 17.0771 19.9148 17.0345 19.7728 16.9805L19.571 16.9038C19.4545 16.8583 19.338 16.8129 19.196 16.7504L19.1022 16.7078C18.9289 16.6339 18.7612 16.5515 18.6106 16.4777L18.1958 16.2618C18.102 16.2163 18.0196 16.1652 17.8918 16.0885L17.8207 16.0487L17.7497 16.0061C17.6446 15.9436 17.5394 15.8782 17.4428 15.8101L17.3746 15.7675C17.3689 15.7646 17.3121 15.7248 17.3064 15.7192C17.2212 15.6652 17.1388 15.6112 17.0592 15.5601C16.8831 15.4351 16.7097 15.3044 16.508 15.1453L16.4284 15.08C14.5531 13.5828 13.1665 11.5829 12.5158 9.43806C11.9106 7.46936 12.3595 4.89272 13.7177 2.54619C13.8939 2.24222 13.8286 1.85587 13.5586 1.6286C13.4251 1.51497 13.2603 1.45531 13.0955 1.45531ZM5.09124 3.63707C4.91792 3.63707 4.74175 3.69957 4.60252 3.82457C3.21307 5.0717 2.17312 6.68813 2.05947 6.87279C-0.912641 11.1994 -0.338678 17.9236 1.70145 22.0343C1.74123 22.1196 1.78385 22.2019 1.82647 22.2843L1.85488 22.3298C1.89182 22.4122 1.93444 22.4974 1.94865 22.5144C1.97138 22.5684 2.00548 22.6281 2.01969 22.6451C2.05378 22.7161 2.08788 22.7786 2.15039 22.8866L2.38338 23.2872C2.41748 23.3411 2.45158 23.3979 2.46294 23.4178C2.50841 23.4917 2.55671 23.5684 2.60501 23.6451L2.71867 23.8269C2.75277 23.8809 2.78686 23.9292 2.8096 23.9576C2.92325 24.1337 3.03691 24.3099 3.16193 24.4775C3.16761 24.486 3.17329 24.4917 3.17898 24.4973L3.22444 24.5598C3.32673 24.7076 3.43186 24.8496 3.52563 24.9661L3.94047 25.4916C3.94616 25.4973 3.99162 25.5513 3.99446 25.557L4.05413 25.6252C4.17915 25.7786 4.3127 25.932 4.44624 26.0797C4.46613 26.1024 4.48602 26.1223 4.50591 26.145C4.63377 26.2842 4.76448 26.4234 4.90087 26.5683L5.03157 26.6933C5.13954 26.8069 5.24752 26.9177 5.36117 27.0229C5.36117 27.0257 5.41516 27.0768 5.41516 27.0768L5.52882 27.1819C5.6652 27.3126 5.80727 27.4433 5.91525 27.5342C5.92093 27.5427 6.02322 27.6308 6.03174 27.6365C6.16529 27.7558 6.29884 27.8694 6.43522 27.9802L7.13137 28.5313C7.24786 28.6166 7.3672 28.7018 7.50359 28.8012C7.54905 28.8353 7.59736 28.8694 7.64566 28.9006C7.66555 28.9177 7.68828 28.9347 7.70249 28.9433L8.22531 29.2927C8.41568 29.4177 8.60605 29.5342 8.83905 29.6734L8.96407 29.7444C9.10898 29.8296 9.25674 29.9148 9.39596 29.9887C9.47836 30.0341 9.56077 30.0739 9.6318 30.1108C9.73125 30.1648 9.83922 30.2245 10.004 30.304C10.0182 30.3125 10.1347 30.3694 10.1489 30.375C10.3137 30.4574 10.4814 30.5341 10.6916 30.6279C10.6916 30.6307 10.7598 30.662 10.7598 30.662C10.9531 30.7444 11.1406 30.8239 11.3878 30.9233C11.4276 30.9404 11.4673 30.9546 11.4759 30.9574C11.652 31.0256 11.8367 31.0938 11.9873 31.1477C12.0015 31.1534 12.0782 31.1847 12.0925 31.1904C12.2942 31.2585 12.4931 31.3239 12.7488 31.4034C12.7914 31.4176 12.8369 31.4318 12.8426 31.4318L12.9875 31.4773C13.1637 31.5313 13.3398 31.5881 13.5302 31.625C14.8827 31.8722 16.204 32 17.4542 32H17.457C27.8764 32 31.1952 23.6167 31.2293 23.5315C31.3572 23.1934 31.2179 22.8127 30.8997 22.6366C30.5871 22.4633 30.1893 22.5457 29.9677 22.8326C27.294 26.3524 22.2505 27.6592 16.4767 26.3325C16.3375 26.2984 16.1954 26.2587 16.0562 26.2161L15.7834 26.1337C15.5987 26.0769 15.4141 26.0144 15.235 25.9519C15.2322 25.9519 15.1498 25.9206 15.1498 25.9206C14.9907 25.8666 14.8316 25.8041 14.6923 25.7502L14.5332 25.6877C14.3571 25.6166 14.1809 25.5428 14.0104 25.4661L13.911 25.4235C13.7575 25.3524 13.6098 25.2843 13.462 25.2104C13.4506 25.2047 13.3341 25.1479 13.3228 25.1451C13.2205 25.0939 13.1182 25.0399 12.9875 24.9689L12.3936 24.6508C12.334 24.611 12.2715 24.5741 12.2118 24.5428C12.0328 24.432 11.8481 24.3212 11.6662 24.2047C11.6236 24.1792 11.5867 24.1508 11.5156 24.1025C11.3906 24.0229 11.2684 23.9405 11.0894 23.8155L11.0184 23.7644C10.8962 23.6792 10.7769 23.5883 10.6774 23.5144C10.6149 23.469 10.5524 23.4178 10.4501 23.3411C10.3592 23.2701 10.2683 23.2019 10.183 23.1337L10.0239 23.0031C9.89037 22.8951 9.76535 22.7815 9.63464 22.6707C9.61759 22.6536 9.60339 22.6423 9.5835 22.6281C9.43858 22.4946 9.29083 22.361 9.11466 22.1934L8.60037 21.6821C8.47535 21.5542 8.35033 21.4236 8.20826 21.2673C8.07755 21.1224 7.95253 20.9775 7.78489 20.7787L7.47802 20.4037C7.44108 20.3497 7.4013 20.2957 7.353 20.2389C7.24786 20.0969 7.14273 19.9577 7.0376 19.81C4.20756 15.9123 3.4688 7.77617 5.67373 4.79614C5.89536 4.49785 5.85558 4.0774 5.57712 3.82457C5.44073 3.69957 5.26457 3.63707 5.09124 3.63707Z" fill="#434343"/>
</svg>
