<svg width="36" height="36" viewBox="0 0 36 36" fill="none" xmlns="http://www.w3.org/2000/svg">
<path d="M3.15978 1C1.97712 1 1 1.97712 1 3.15978V32.8402C1 34.0229 1.97712 35 3.15978 35H32.8403C34.0229 35 35 34.026 35 32.8402V3.15978C35 1.97712 34.0261 1 32.8403 1H3.15978ZM3.15978 2.88889H32.8403C33.1407 2.88889 33.1112 2.85938 33.1112 3.15978V32.8402C33.1112 33.1406 33.1407 33.1111 32.8403 33.1111H3.15978C2.85937 33.1111 2.88889 33.1406 2.88889 32.8402V18V3.15978C2.88889 2.85938 2.85937 2.88889 3.15978 2.88889Z" fill="#434343"/>
<path d="M15.369 25.6156V15.4364H18.6071V26.1089C18.6071 29.3438 16.7098 30.8174 13.9397 30.8174C11.4353 30.8174 9.62965 29.1383 8.89286 27.5793L11.4353 26.0393C11.9286 26.9089 12.6748 27.5793 13.75 27.5793C14.7777 27.5793 15.369 27.1777 15.369 25.6156Z" fill="#434343"/>
<path d="M20.925 19.5188C20.925 17.201 22.6927 15.4364 25.4501 15.4364C27.4139 15.4364 28.8274 16.1195 29.8424 17.9124L27.436 19.4556C26.9079 18.5069 26.3387 18.1306 25.4501 18.1306C24.5458 18.1306 23.9702 18.7062 23.9702 19.4556C23.9702 20.3821 24.5458 20.7553 25.8707 21.3308L26.6423 21.6597C29.2701 22.7854 30.75 23.9333 30.75 26.5136C30.75 29.2932 28.5649 30.8174 25.6304 30.8174C22.7623 30.8174 21.1337 29.3723 20.2262 27.5793L22.6548 25.9603C23.3157 27.0417 24.0366 28.0758 25.5608 28.0758C26.8415 28.0758 27.5119 27.437 27.5119 26.5547C27.5119 25.4954 26.8162 25.1191 25.409 24.5025L24.6375 24.1704C22.4081 23.2218 20.925 22.0328 20.925 19.5188Z" fill="#434343"/>
<path d="M3.15978 1C1.97712 1 1 1.97712 1 3.15978V32.8402C1 34.0229 1.97712 35 3.15978 35H32.8403C34.0229 35 35 34.026 35 32.8402V3.15978C35 1.97712 34.0261 1 32.8403 1H3.15978ZM3.15978 2.88889H32.8403C33.1407 2.88889 33.1112 2.85938 33.1112 3.15978V32.8402C33.1112 33.1406 33.1407 33.1111 32.8403 33.1111H3.15978C2.85937 33.1111 2.88889 33.1406 2.88889 32.8402V18V3.15978C2.88889 2.85938 2.85937 2.88889 3.15978 2.88889Z" stroke="#434343"/>
<path d="M15.369 25.6156V15.4364H18.6071V26.1089C18.6071 29.3438 16.7098 30.8174 13.9397 30.8174C11.4353 30.8174 9.62965 29.1383 8.89286 27.5793L11.4353 26.0393C11.9286 26.9089 12.6748 27.5793 13.75 27.5793C14.7777 27.5793 15.369 27.1777 15.369 25.6156Z" stroke="#434343"/>
<path d="M20.925 19.5188C20.925 17.201 22.6927 15.4364 25.4501 15.4364C27.4139 15.4364 28.8274 16.1195 29.8424 17.9124L27.436 19.4556C26.9079 18.5069 26.3387 18.1306 25.4501 18.1306C24.5458 18.1306 23.9702 18.7062 23.9702 19.4556C23.9702 20.3821 24.5458 20.7553 25.8707 21.3308L26.6423 21.6597C29.2701 22.7854 30.75 23.9333 30.75 26.5136C30.75 29.2932 28.5649 30.8174 25.6304 30.8174C22.7623 30.8174 21.1337 29.3723 20.2262 27.5793L22.6548 25.9603C23.3157 27.0417 24.0366 28.0758 25.5608 28.0758C26.8415 28.0758 27.5119 27.437 27.5119 26.5547C27.5119 25.4954 26.8162 25.1191 25.409 24.5025L24.6375 24.1704C22.4081 23.2218 20.925 22.0328 20.925 19.5188Z" stroke="#434343"/>
</svg>
