<svg width="24" height="23" viewBox="0 0 24 23" fill="none" xmlns="http://www.w3.org/2000/svg">
<path d="M9.10891 0.882947L0.871282 9.23082C0.290424 9.81946 -2.04046e-06 10.5686 -1.96093e-06 11.4783C-1.8814e-06 12.388 0.290425 13.1372 0.871283 13.7258L9.18812 22.154C9.76898 22.7426 10.4945 23.0241 11.3648 22.9984C12.2371 22.9706 12.9637 22.6623 13.5446 22.0737C14.1254 21.4851 14.4158 20.7359 14.4158 19.8262C14.4158 18.9165 14.1254 18.1673 13.5446 17.5787L10.6931 14.689L20.9109 14.689C21.8086 14.689 22.5479 14.3819 23.1287 13.7676C23.7096 13.1511 24 12.388 24 11.4783C24 10.5686 23.6083 9.80661 23 9.19229C22.3938 8.57584 21.7294 8.26761 20.8317 8.26761L10.6931 8.26761L13.6238 5.29769C14.2046 4.70906 14.4824 3.97273 14.457 3.08872C14.4296 2.20684 14.1254 1.47158 13.5446 0.882947C12.9637 0.294315 12.2244 1.02945e-06 11.3267 1.10793e-06C10.429 1.18641e-06 9.68977 0.294315 9.10891 0.882947Z" fill="#575757"/>
</svg>
