<svg width="38" height="36" viewBox="0 0 38 36" fill="none" xmlns="http://www.w3.org/2000/svg">
<path d="M4.13636 0C1.85102 0 0 1.79 0 4V32C0 34.21 1.85102 36 4.13636 36H33.0909C35.3763 36 37.2273 34.21 37.2273 32V4C37.2273 1.79 35.3763 0 33.0909 0H4.13636ZM4.13636 4H33.0909V32H4.13636V4ZM9.88446 6.63281C8.11202 6.63281 7.04878 7.66316 7.04878 9.03516C7.04878 10.4072 8.11215 11.4336 9.70672 11.4336C11.4792 11.4336 12.5424 10.4072 12.5424 9.03516C12.5424 7.66316 11.479 6.63281 9.88446 6.63281ZM7.19016 14V28H12.4091V14H7.19016ZM16.7151 14V28H21.934V20.3477C21.934 18.0697 23.6147 17.7422 24.1194 17.7422C24.624 17.7422 25.9735 18.2317 25.9735 20.3477V28H31.0227V20.3477C31.0227 15.9537 29.0036 14 26.4784 14C23.9531 14 22.6062 14.8131 21.934 15.9531V14H16.7151Z" fill="#00357A"/>
</svg>
