<svg width="34" height="40" viewBox="0 0 34 40" fill="none" xmlns="http://www.w3.org/2000/svg">
<path d="M16.4765 0C12.4488 0 10.4061 2.91667 10.4061 8.67209V13.0081C10.4061 13.3299 10.318 13.7127 10.1656 14.021C10.1147 14.126 9.87084 14.4715 9.65404 14.773C8.44808 16.46 5.78209 21.1213 5.28751 26.189C5.4806 26.1518 5.67708 26.1247 5.89727 26.1247C6.42911 26.1247 7.83155 26.1247 10.0673 29.8137C10.4941 30.4268 10.7177 30.8028 11.026 31.3178C11.2326 31.6701 11.4867 32.1003 11.8932 32.7473L11.9135 32.7778L11.9372 32.815C12.171 33.2317 12.4149 33.5637 12.652 33.8787C12.7875 34.0617 12.9264 34.2514 13.0619 34.4478C13.5937 34.2344 14.1357 33.916 14.4576 33.4553C14.881 32.7507 14.8336 31.914 14.3322 31.1619C14.1256 30.8469 13.7428 30.6233 12.8282 30.0982C12.2794 29.7866 11.5985 29.397 11.2868 29.1294C10.5585 28.5061 9.53887 27.1477 9.53887 26.0705C9.53887 23.7669 11.0802 20.2541 12.3166 18.1707C13.0246 16.9817 13.5633 16.0637 13.7767 15.2812C13.8986 15.3659 14.0341 15.4472 14.2238 15.5115L14.2543 15.5217L14.2882 15.5318C14.8912 15.6911 15.4975 15.664 15.8905 15.664C16.7069 15.664 17.2963 15.271 17.8451 14.9424C18.3837 14.6138 18.9156 14.3089 18.9935 14.2818C19.3864 15.0237 19.8946 15.7114 20.423 16.4262C21.8729 18.3774 23.6141 21.6599 24.129 26.5346C24.8031 26.1789 25.1893 26.0705 26.0158 26.0705C26.0328 26.0705 26.0531 26.0738 26.07 26.0738C26.1446 26.0705 26.2157 26.0637 26.2902 26.0637C26.507 26.0637 26.7272 26.0772 26.944 26.0976C27.4555 26.128 28.1398 26.3042 28.5429 26.4431C29.2204 26.643 29.7794 26.9986 30.1723 27.4526C30.5246 27.456 30.8634 27.5373 31.175 27.6897C31.175 27.124 31.2191 26.294 31.2191 26.0705C31.2191 23.208 29.3424 19.2581 27.9298 17.2324C27.6385 16.8123 27.3573 16.4194 27.0863 16.0434C25.8363 14.3123 24.8471 12.9438 24.2814 10.586C23.9088 9.05488 23.858 8.58062 23.8072 8.12331C23.7597 7.6626 23.7055 7.18157 23.3973 5.88753C22.8349 3.26558 22.1405 0 16.4765 0ZM13.8749 5.20325C14.8336 5.20325 15.6093 6.94783 15.6093 8.38753C15.6093 8.47561 15.5992 8.6145 15.5924 8.73984C15.528 8.73645 15.4637 8.72629 15.3959 8.72629C15.1486 8.72629 14.9183 8.76355 14.6981 8.82114C14.5931 8.26897 14.2746 7.85908 13.8749 7.85908C13.3973 7.85908 13.0077 8.44173 13.0077 9.15989C13.0077 9.33604 13.0314 9.50203 13.0755 9.65447C12.8417 9.83062 12.6622 9.97968 12.5572 10.0847C12.5267 10.1118 12.503 10.1321 12.4759 10.1558C12.4115 10.0203 12.3573 9.88144 12.3099 9.729C12.2116 9.12263 12.1405 8.38753 12.1405 8.38753C12.1405 6.94783 12.9162 5.20325 13.8749 5.20325ZM18.211 5.20325C19.1696 5.20325 19.9454 6.94783 19.9454 8.38753C19.9454 8.92276 19.8302 9.55285 19.6439 10.0508C19.4034 9.94919 19.173 9.87127 18.9427 9.81369C19.0206 9.6206 19.0782 9.40379 19.0782 9.15989C19.0782 8.44173 18.6886 7.85908 18.211 7.85908C17.7333 7.85908 17.3437 8.44173 17.3437 9.15989C17.3437 9.16328 17.3437 9.16667 17.3437 9.17005C17.0863 9.06504 16.8017 8.96341 16.5036 8.8855C16.4901 8.70257 16.4765 8.51626 16.4765 8.38753C16.4765 6.94783 17.2523 5.20325 18.211 5.20325ZM15.3959 10.4607C15.7482 10.4607 16.2597 10.5996 16.7272 10.7893C17.1947 10.979 17.591 11.189 17.923 11.3279L17.9908 11.3584L18.0619 11.372C18.5023 11.477 18.8986 11.5888 19.0612 11.6734C19.0172 12.0461 18.9731 12.2493 18.9528 12.2798C18.9291 12.3171 18.8072 12.4322 18.3634 12.6694C17.8146 12.8659 17.3979 13.1843 16.9508 13.4553C16.4596 13.75 15.9616 13.9295 15.8905 13.9295C15.5111 13.9295 14.986 13.9024 14.776 13.8584C14.8573 13.8821 14.715 13.811 14.5355 13.645C14.3424 13.4621 14.1019 13.2114 13.858 12.9505L13.7936 12.8862L13.7259 12.8388C13.4481 12.6423 13.2313 12.4661 13.1263 12.3408C13.0179 12.2121 13.0077 12.1748 13.0077 12.0901C13.0077 11.9614 12.984 12.0393 13.0619 11.9512C13.1398 11.8598 13.3769 11.6734 13.6988 11.3889L13.7292 11.3652L13.7563 11.3347C13.7089 11.3855 14.024 11.0772 14.3661 10.8537C14.7082 10.6301 15.1317 10.4607 15.3959 10.4607ZM26.2902 27.8015C25.4806 27.8015 24.9183 28.042 24.7658 28.2351C25.1181 28.6416 25.3349 29.0346 25.5585 29.7459C25.799 30.2744 26.402 30.4065 26.883 30.4065C28.3532 30.4065 28.6378 29.5224 29.1019 29.0244C29.1019 29.0244 28.9799 28.8889 28.9799 28.7568C28.858 28.4925 28.4989 28.2283 28.0179 28.0962C27.6554 27.9641 27.0524 27.832 26.8119 27.832C26.629 27.8083 26.4562 27.8015 26.2902 27.8015ZM5.89727 27.8591C5.29429 27.8591 4.99618 28.1572 4.59307 28.5603C4.18995 28.96 3.76312 29.5833 3.05851 30.0847C2.43859 30.8909 0.585612 30.1152 0.0537696 31.3279C-0.240946 31.9919 0.771927 32.8659 0.771927 34.3665C0.771927 34.9695 0.267184 35.3692 0.168946 35.7724C0.0673197 36.2703 -0.0343059 36.5718 0.168946 36.9715C0.568675 37.5711 1.07342 37.7744 4.49144 38.4722C6.30038 38.8753 8.01109 39.878 9.11542 39.9763C10.2198 40.0745 12.1303 39.9763 12.1303 37.273C12.232 35.6707 11.3275 35.271 10.423 33.6687C9.41691 32.063 9.31868 31.7649 8.61407 30.7622C8.01109 29.7595 6.7035 27.8591 5.89727 27.8591ZM23.6175 29.5901C23.4142 29.9966 23.4142 30.3049 23.4142 31.3279C23.4142 32.1477 23.4142 33.0691 23.3126 33.7873C23.1059 35.5285 22.547 36.311 22.547 37.334C22.547 38.4621 22.8553 39.1802 23.2652 39.4885C23.57 39.7967 24.0849 40 25.213 40C26.3376 40 27.0558 39.5901 27.774 38.8753C28.2855 38.3604 28.6954 38.1572 30.1317 37.1308C31.2563 36.4126 33.0009 35.4912 33.3058 35.1863C33.5124 34.9797 33.8207 34.8747 33.8207 34.2581C33.8207 33.7466 33.4108 33.5434 33.1026 33.4417C32.6927 33.2351 31.9779 32.9268 31.3614 32.0054C31.0937 31.5617 31.1344 30.4201 30.8126 29.7256L30.3688 30.2033C30.318 30.2575 30.274 30.3286 30.2231 30.393C29.8031 30.9621 28.9291 32.1409 26.883 32.1409C25.5416 32.1409 24.4576 31.5142 23.9799 30.4607L23.9359 30.3659L23.902 30.2608C23.7936 29.9153 23.7055 29.729 23.6175 29.5901ZM21.2496 35.1321C20.423 35.8435 19.1595 36.5312 17.3437 36.5312C15.4975 36.5312 14.2509 35.8503 13.4582 35.1524C13.7326 35.7283 13.9156 36.4126 13.8647 37.3272C13.8647 37.6558 13.8343 37.9675 13.7868 38.2656H20.8837C20.8431 37.9675 20.8126 37.6626 20.8126 37.334C20.8126 36.5684 21.0023 35.9451 21.1886 35.3421C21.2089 35.2744 21.2292 35.1999 21.2496 35.1321Z" fill="#434343"/>
</svg>
