<svg width="35" height="38" viewBox="0 0 35 38" fill="none" xmlns="http://www.w3.org/2000/svg">
<path d="M17.6073 1C17.1019 1 16.5966 1.12397 16.1605 1.3732L2.4387 9.29417C1.55255 9.80648 1 10.7765 1 11.8011V26.1719C1 27.2103 1.55255 28.1665 2.4387 28.6788L6.04087 30.7557C7.78548 31.6142 8.40758 31.613 9.19682 31.613C11.786 31.613 13.2668 30.0486 13.2668 27.3347V12.5069C13.2668 12.2854 13.0881 12.104 12.8666 12.104H11.1358C10.9004 12.104 10.7329 12.2854 10.7329 12.5069V27.3212C10.7329 28.5397 9.47439 29.7301 7.439 28.7194L3.67188 26.5451C3.53341 26.4758 3.45012 26.3242 3.45012 26.1719V11.8146C3.45012 11.6484 3.53341 11.5083 3.67188 11.4252L17.3936 3.50691C17.5182 3.42383 17.6852 3.42383 17.8236 3.50691L31.5454 11.4252C31.6838 11.5083 31.7671 11.6488 31.7671 11.8011V26.1719C31.7671 26.3242 31.6835 26.4758 31.5589 26.5451L17.8236 34.4796C17.699 34.5488 17.5182 34.5488 17.3936 34.4796L13.8618 32.3891C13.7649 32.3199 13.6288 32.3067 13.5319 32.3621C12.5488 32.9159 12.3688 32.9847 11.4549 33.3032C11.2334 33.3724 10.887 33.5104 11.5793 33.8981L16.1605 36.6133C16.6035 36.8625 17.1034 37 17.6019 37C18.1142 37 18.611 36.8625 19.0541 36.6133L32.7921 28.6788C33.6782 28.1665 34.2308 27.2103 34.2308 26.1719V11.8146C34.2308 10.7761 33.6782 9.82 32.7921 9.30769L19.0541 1.3732C18.6179 1.12397 18.1127 1 17.6073 1ZM21.2987 12.085C17.3802 12.085 15.0409 13.7455 15.0409 16.5147C15.0409 19.5193 17.3649 20.3488 21.131 20.7227C25.631 21.1657 25.9772 21.8323 25.9772 22.7185C25.9772 24.2415 24.7469 24.8927 21.8531 24.8927C18.2115 24.8927 17.4079 23.9776 17.1448 22.1776C17.1171 21.9837 16.952 21.845 16.7581 21.845H14.9706C14.749 21.845 14.5838 22.0267 14.5838 22.2344C14.5838 24.5467 15.8438 27.2996 21.8531 27.2996C26.2008 27.2996 28.6923 25.5848 28.6923 22.5941C28.6923 19.631 26.6843 18.8402 22.4751 18.2725C18.1966 17.7187 17.7668 17.4278 17.7668 16.4309C17.7668 15.6001 18.1418 14.5081 21.2987 14.5081C24.1094 14.5081 25.1612 15.1154 25.5904 17.0123C25.632 17.1923 25.7833 17.3314 25.9772 17.3314H27.7647C27.8755 17.3314 27.971 17.2766 28.0541 17.1935C28.1233 17.1243 28.1653 17.0125 28.1514 16.8879C27.8745 13.6202 25.7018 12.085 21.2987 12.085Z" fill="#434343" stroke="#434343" stroke-width="0.7"/>
</svg>
