<svg width="36" height="36" viewBox="0 0 36 36" fill="none" xmlns="http://www.w3.org/2000/svg">
<path d="M17.999 0C7.63283 0 -0.686067 8.7604 0.0447334 19.2832C0.705333 28.8034 9.00918 36 18.551 36H19.799C21.788 36 23.399 34.389 23.399 32.4V27C23.399 25.011 25.01 23.4 26.999 23.4H32.399C34.388 23.4 35.999 21.789 35.999 19.8V18.552C35.999 9.01015 28.8041 0.706303 19.2857 0.0457031C18.8537 0.0151031 18.4238 0 17.999 0ZM17.999 3.6C18.341 3.6 18.6852 3.61176 19.0326 3.63516C26.5278 4.15536 32.399 10.7076 32.399 18.552V19.8H26.999C23.0282 19.8 19.799 23.0292 19.799 27V32.4H18.551C10.7066 32.4 4.15259 26.527 3.63419 19.0336C3.35339 14.9836 4.71402 11.1311 7.46622 8.18086C10.222 5.22706 13.9634 3.6 17.999 3.6ZM18.899 5.4C18.1829 5.4 17.4962 5.68446 16.9898 6.19081C16.4835 6.69716 16.199 7.38392 16.199 8.1C16.199 8.81608 16.4835 9.50284 16.9898 10.0092C17.4962 10.5155 18.1829 10.8 18.899 10.8C19.6151 10.8 20.3019 10.5155 20.8082 10.0092C21.3146 9.50284 21.599 8.81608 21.599 8.1C21.599 7.38392 21.3146 6.69716 20.8082 6.19081C20.3019 5.68446 19.6151 5.4 18.899 5.4ZM11.699 7.2C10.9829 7.2 10.2962 7.48446 9.78984 7.99081C9.28349 8.49716 8.99903 9.18392 8.99903 9.9C8.99903 10.6161 9.28349 11.3028 9.78984 11.8092C10.2962 12.3155 10.9829 12.6 11.699 12.6C12.4151 12.6 13.1019 12.3155 13.6082 11.8092C14.1146 11.3028 14.399 10.6161 14.399 9.9C14.399 9.18392 14.1146 8.49716 13.6082 7.99081C13.1019 7.48446 12.4151 7.2 11.699 7.2ZM26.099 9C25.3829 9 24.6962 9.28446 24.1898 9.79081C23.6835 10.2972 23.399 10.9839 23.399 11.7C23.399 12.4161 23.6835 13.1028 24.1898 13.6092C24.6962 14.1155 25.3829 14.4 26.099 14.4C26.8151 14.4 27.5019 14.1155 28.0082 13.6092C28.5146 13.1028 28.799 12.4161 28.799 11.7C28.799 10.9839 28.5146 10.2972 28.0082 9.79081C27.5019 9.28446 26.8151 9 26.099 9ZM8.09903 14.4C7.38295 14.4 6.69619 14.6845 6.18984 15.1908C5.68349 15.6972 5.39903 16.3839 5.39903 17.1C5.39903 17.8161 5.68349 18.5028 6.18984 19.0092C6.69619 19.5155 7.38295 19.8 8.09903 19.8C8.81511 19.8 9.50187 19.5155 10.0082 19.0092C10.5146 18.5028 10.799 17.8161 10.799 17.1C10.799 16.3839 10.5146 15.6972 10.0082 15.1908C9.50187 14.6845 8.81511 14.4 8.09903 14.4ZM14.399 21.6C13.4443 21.6 12.5286 21.9793 11.8534 22.6544C11.1783 23.3295 10.799 24.2452 10.799 25.2C10.799 26.1548 11.1783 27.0705 11.8534 27.7456C12.5286 28.4207 13.4443 28.8 14.399 28.8C15.3538 28.8 16.2695 28.4207 16.9446 27.7456C17.6197 27.0705 17.999 26.1548 17.999 25.2C17.999 24.2452 17.6197 23.3295 16.9446 22.6544C16.2695 21.9793 15.3538 21.6 14.399 21.6Z" fill="#434343"/>
</svg>
