<svg width="38" height="34" viewBox="0 0 38 34" fill="none" xmlns="http://www.w3.org/2000/svg">
<path d="M12.1595 0C11.1921 0 10.2948 0.214938 9.5 0.669074C7.01596 2.09244 6.07044 5.56105 6.57145 9.87958C2.55344 11.6083 0 14.1537 0 17C0 19.8463 2.55344 22.3917 6.57145 24.1204C6.0707 28.4388 7.01596 31.9076 9.5 33.3309C10.2933 33.7851 11.1905 34 12.1595 34C14.222 34 16.6058 32.9727 19 31.2101C21.3944 32.9727 23.7811 34 25.8436 34C26.811 34 27.7083 33.7851 28.5031 33.3309C30.9871 31.9076 31.9326 28.4389 31.4316 24.1204C35.4481 22.3918 38 19.8457 38 17C38 14.1537 35.4466 11.6083 31.4285 9.87958C31.9293 5.56122 30.984 2.09244 28.5 0.669074C27.7068 0.213367 26.8095 0 25.8405 0C23.778 0 21.3942 1.02734 19 2.78985C16.6056 1.02734 14.2213 0 12.1595 0ZM12.1595 2.74995C13.3971 2.74995 15.0337 3.40304 16.8105 4.61293C15.7658 5.59141 14.7427 6.70406 13.7583 7.94295C12.1617 8.17016 10.6564 8.50137 9.26188 8.91587C9.25439 8.81989 9.23666 8.71918 9.23096 8.6243C9.06154 5.8272 9.6805 3.74215 10.8854 3.05073C11.2417 2.84645 11.6576 2.74995 12.1595 2.74995ZM25.8405 2.74995C26.3408 2.74995 26.7583 2.84645 27.1146 3.05073C28.3195 3.74058 28.9385 5.8272 28.769 8.6243C28.7633 8.71918 28.7456 8.81989 28.7381 8.91587C27.3427 8.50111 25.8363 8.17017 24.2386 7.94295C23.2543 6.70423 22.2341 5.5913 21.1895 4.61293C22.9662 3.40324 24.6035 2.74995 25.8405 2.74995ZM19 6.35927C19.4292 6.74699 19.8554 7.15679 20.2865 7.60534C19.8593 7.5911 19.4344 7.57158 19 7.57158C18.5666 7.57158 18.1428 7.59117 17.7166 7.60534C18.1473 7.15725 18.5712 6.74662 19 6.35927ZM19 10.3215C20.3121 10.3215 21.5557 10.3943 22.7357 10.521C23.4553 11.4918 24.1645 12.5181 24.8293 13.6608C25.4665 14.7561 26.0299 15.8772 26.527 17C26.0298 18.1235 25.4668 19.2463 24.8293 20.3423C24.1665 21.4817 23.4591 22.5014 22.7419 23.4698C21.5202 23.6024 20.267 23.6785 19 23.6785C17.6879 23.6785 16.4443 23.6057 15.2643 23.479C14.5447 22.5082 13.8355 21.485 13.1707 20.3423C12.5332 19.2463 11.9703 18.1235 11.473 17C11.97 15.8772 12.5336 14.7561 13.1707 13.6608C13.8337 12.5214 14.5407 11.4986 15.2581 10.5302C16.4798 10.3976 17.733 10.3215 19 10.3215ZM26.5146 11.1717C27.1428 11.3222 27.7467 11.4847 28.3145 11.6658C28.1858 12.2426 28.0285 12.8305 27.8506 13.4244C27.6468 13.045 27.4493 12.6643 27.229 12.2858C27.0024 11.8964 26.7508 11.5465 26.5146 11.1717ZM11.4823 11.1748C11.2469 11.5485 10.9969 11.8976 10.771 12.2858C10.5508 12.6644 10.3531 13.0449 10.1494 13.4244C9.97106 12.8292 9.8112 12.2407 9.68245 11.6628C10.2606 11.4815 10.863 11.3209 11.4823 11.1748ZM7.07552 12.6725C7.40912 14.0705 7.87191 15.5196 8.46712 16.9969C7.87317 18.4707 7.41233 19.9172 7.07861 21.3122C4.32129 19.9907 2.77083 18.3457 2.77083 17C2.77083 15.6187 4.27797 14.0446 6.80339 12.7922C6.88959 12.7494 6.98744 12.7143 7.07552 12.6725ZM30.9214 12.6878C33.6787 14.0093 35.2292 15.6543 35.2292 17C35.2292 18.3813 33.722 19.9554 31.1966 21.2078C31.1104 21.2506 31.0126 21.2857 30.9245 21.3275C30.5907 19.9287 30.1317 18.4782 29.536 17C30.1292 15.5275 30.5879 14.0816 30.9214 12.6878ZM19 13.8572C17.2504 13.8572 15.8333 15.2636 15.8333 17C15.8333 18.7364 17.2504 20.1428 19 20.1428C20.7496 20.1428 22.1667 18.7364 22.1667 17C22.1667 15.2636 20.7496 13.8572 19 13.8572ZM10.1494 20.5756C10.3532 20.9551 10.5538 21.3355 10.7741 21.7142C11.0005 22.1033 11.2494 22.4537 11.4854 22.8283C10.8572 22.6778 10.2533 22.5153 9.68555 22.3342C9.81426 21.757 9.97131 21.1699 10.1494 20.5756ZM27.8506 20.5786C28.0287 21.1733 28.1889 21.7599 28.3175 22.3372C27.7394 22.5185 27.137 22.6791 26.5177 22.8252C26.7531 22.4515 27.0031 22.1024 27.229 21.7142C27.4487 21.3364 27.6473 20.9573 27.8506 20.5786ZM9.26188 25.0841C10.6573 25.4989 12.1637 25.8298 13.7614 26.0571C14.746 27.2964 15.7654 28.4114 16.8105 29.3901C15.0338 30.5997 13.397 31.2531 12.1595 31.2531C11.6592 31.2531 11.2417 31.1536 10.8854 30.9493C9.6805 30.2594 9.06154 28.1759 9.23096 25.3788C9.23676 25.2829 9.25426 25.1811 9.26188 25.0841ZM28.7381 25.0841C28.7457 25.1811 28.7633 25.2829 28.769 25.3788C28.9385 28.1759 28.3195 30.2579 27.1146 30.9493C26.7583 31.1536 26.3424 31.2531 25.8405 31.2531C24.603 31.2531 22.9662 30.5999 21.1895 29.3901C22.2347 28.4113 23.2569 27.2965 24.2417 26.0571C25.8383 25.8298 27.3436 25.4986 28.7381 25.0841ZM17.7135 26.3947C18.1407 26.4089 18.5656 26.4284 19 26.4284C19.4344 26.4284 19.8593 26.4089 20.2865 26.3947C19.8554 26.8432 19.4292 27.253 19 27.6407C18.5708 27.253 18.1446 26.8432 17.7135 26.3947Z" fill="#434343"/>
</svg>
