<svg width="24" height="23" viewBox="0 0 24 23" fill="none" xmlns="http://www.w3.org/2000/svg">
<path d="M14.8911 22.1171L23.1287 13.7692C23.7096 13.1805 24 12.4314 24 11.5217C24 10.612 23.7096 9.8628 23.1287 9.27417L14.8119 0.846032C14.231 0.2574 13.5055 -0.0240748 12.6352 0.00161095C11.7629 0.0294372 11.0363 0.337666 10.4554 0.926298C9.87459 1.51493 9.58416 2.2641 9.58416 3.1738C9.58416 4.08351 9.87459 4.83268 10.4554 5.42131L13.3069 8.31096H3.08911C2.19142 8.31096 1.45214 8.61811 0.871286 9.23243C0.290428 9.84889 0 10.612 0 11.5217C0 12.4314 0.391683 13.1934 1 13.8077C1.6062 14.4242 2.27063 14.7324 3.16832 14.7324H13.3069L10.3762 17.7023C9.79538 18.2909 9.51762 19.0273 9.54297 19.9113C9.57043 20.7932 9.87459 21.5284 10.4554 22.1171C11.0363 22.7057 11.7756 23 12.6733 23C13.571 23 14.3102 22.7057 14.8911 22.1171Z" fill="#575757"/>
</svg>
