<svg width="38" height="36" viewBox="0 0 38 36" fill="none" xmlns="http://www.w3.org/2000/svg">
<path d="M6.96187 0C3.55977 0 0.757324 2.71006 0.757324 6V30C0.757324 33.2899 3.55977 36 6.96187 36H31.7801C35.1822 36 37.9846 33.2899 37.9846 30V6C37.9846 2.71006 35.1822 0 31.7801 0H6.96187ZM6.96187 4H31.7801C32.9486 4 33.8482 4.86994 33.8482 6V30C33.8482 31.1301 32.9486 32 31.7801 32H6.96187C5.79328 32 4.89369 31.1301 4.89369 30V6C4.89369 4.86994 5.79328 4 6.96187 4ZM8.41202 8L16.5636 19.2656L8.83616 28H11.591L17.7996 20.9688L22.8812 28H30.8227L22.1662 16.0195L29.2433 8H26.5329L20.9423 14.3203L16.3778 8H8.41202ZM12.2697 9.97656H15.3437L26.9893 26.0234H23.8951L12.2697 9.97656Z" fill="#00357A"/>
</svg>
