<svg width="44" height="32" viewBox="0 0 44 32" fill="none" xmlns="http://www.w3.org/2000/svg">
<path d="M16 0V4H7.45703C7.10656 3.39296 6.60272 2.88867 5.99599 2.53766C5.38926 2.18665 4.70095 2.00124 4 2C2.93913 2 1.92172 2.42143 1.17157 3.17157C0.421427 3.92172 0 4.93913 0 6C0 7.06087 0.421427 8.07828 1.17157 8.82843C1.92172 9.57857 2.93913 10 4 10C4.70161 9.99944 5.39073 9.81436 5.99821 9.46331C6.60568 9.11226 7.11013 8.60761 7.46094 8H12.2344C9.62925 10.5465 8 14.0842 8 18V20H4V32H16V20H12V18C12 14.7182 13.5755 11.8211 16 10V12H28V10C30.4245 11.8211 32 14.7182 32 18V20H28V32H40V20H36V18C36 14.0842 34.3708 10.5465 31.7656 8H36.543C36.8934 8.60704 37.3973 9.11132 38.004 9.46234C38.6107 9.81335 39.2991 9.99876 40 10C41.0609 10 42.0783 9.57857 42.8284 8.82843C43.5786 8.07828 44 7.06087 44 6C44 4.93913 43.5786 3.92172 42.8284 3.17157C42.0783 2.42143 41.0609 2 40 2C39.2984 2.00056 38.6093 2.18564 38.0018 2.53669C37.3943 2.88773 36.8899 3.39239 36.5391 4H28V0H16ZM20 4H24V8H20V4ZM8 24H12V28H8V24ZM32 24H36V28H32V24Z" fill="#434343"/>
</svg>
