<svg width="26" height="26" viewBox="0 0 26 26" fill="none" xmlns="http://www.w3.org/2000/svg">
<path d="M2.88889 0C1.31002 0 0 1.31002 0 2.88889V23.1111C0 24.69 1.31002 26 2.88889 26H23.1111C24.69 26 26 24.69 26 23.1111V2.88889C26 1.31002 24.69 0 23.1111 0H2.88889ZM2.88889 2.88889H23.1111V8.66667H2.88889V2.88889ZM5.77778 4.33333C5.39469 4.33333 5.02729 4.48552 4.7564 4.7564C4.48552 5.02729 4.33333 5.39469 4.33333 5.77778C4.33333 6.16087 4.48552 6.52827 4.7564 6.79915C5.02729 7.07004 5.39469 7.22222 5.77778 7.22222C6.16087 7.22222 6.52827 7.07004 6.79915 6.79915C7.07004 6.52827 7.22222 6.16087 7.22222 5.77778C7.22222 5.39469 7.07004 5.02729 6.79915 4.7564C6.52827 4.48552 6.16087 4.33333 5.77778 4.33333ZM10.1111 4.33333C9.72802 4.33333 9.36062 4.48552 9.08974 4.7564C8.81885 5.02729 8.66667 5.39469 8.66667 5.77778C8.66667 6.16087 8.81885 6.52827 9.08974 6.79915C9.36062 7.07004 9.72802 7.22222 10.1111 7.22222C10.4942 7.22222 10.8616 7.07004 11.1325 6.79915C11.4034 6.52827 11.5556 6.16087 11.5556 5.77778C11.5556 5.39469 11.4034 5.02729 11.1325 4.7564C10.8616 4.48552 10.4942 4.33333 10.1111 4.33333ZM14.4444 4.33333V7.22222H20.2222V4.33333H14.4444ZM2.88889 11.5556H23.1111V23.1111H2.88889V11.5556ZM5.77778 14.4444V20.2222H13V14.4444H5.77778ZM15.8889 14.4444V20.2222H20.2222V14.4444H15.8889Z" fill="#434343"/>
</svg>
