<?xml version="1.0" encoding="UTF-8"?><svg id="Layer_2" xmlns="http://www.w3.org/2000/svg" viewBox="0 0 527.11 887.97"><defs><style>.cls-1{stroke:#fcfcfc;}.cls-1,.cls-2{stroke-width:4px;}.cls-1,.cls-2,.cls-3{fill:none;stroke-miterlimit:10;}.cls-4{fill:#f7f7f7;}.cls-4,.cls-5{stroke-width:0px;}.cls-5{fill:#f0eded;}.cls-2,.cls-3{stroke:#f9f9f9;}.cls-3{stroke-width:2px;}</style></defs><g id="SparserFatter"><rect id="background" class="cls-5" x="0" y="0" width="527.1" height="887.96"/><polyline class="cls-1" points="298.37 781.33 298.37 847.89 313.1 862.62 313.1 887.96"/><polyline class="cls-1" points="218.45 781.33 218.45 847.89 233.18 862.62 233.18 887.96"/><polyline class="cls-1" points="271.73 781.33 271.73 847.89 286.46 862.62 286.46 887.96"/><polyline class="cls-1" points="245.09 781.33 245.09 847.89 259.82 862.62 259.82 887.96"/><polyline class="cls-1" points="76.8 0 76.8 147.39 67.2 160.6 67.2 344.6"/><polyline class="cls-1" points="24.47 0 24.47 147.39 13.91 160.6 13.91 344.6"/><polyline class="cls-1" points="50.64 0 50.64 147.39 40.56 160.6 40.56 344.6"/><line class="cls-1" x1="312.92" y1="229.48" x2="312.92" y2="0"/><line class="cls-1" x1="286.46" y1="229.48" x2="286.46" y2="0"/><line class="cls-1" x1="260.01" y1="229.48" x2="260.01" y2="0"/><line class="cls-1" x1="233.55" y1="229.48" x2="233.55" y2="0"/><polyline class="cls-2" points="329.54 887.94 329 573.93 251.01 573.93"/><polyline class="cls-2" points="361.16 887.96 361.16 541.77 251.01 541.77"/><polyline class="cls-2" points="393.33 887.94 393.33 509.61 251.01 509.61"/><polyline class="cls-1" points="128.88 573.52 56.68 573.52 56.68 470.49 0 470.49"/><polyline class="cls-1" points="0 442.24 68.27 442.24 68.27 553.39 128.88 553.39"/><polyline class="cls-1" points="0 414 79.87 414.31 79.87 534.78 128.88 534.78"/><polyline class="cls-1" points="128.88 515.74 91.46 515.74 91.46 385.75 0 385.75"/><polyline class="cls-2" points="139.24 488.42 139.24 286.65 102.97 252.82 102.97 0"/><polyline class="cls-2" points="171.4 482.29 171.4 285.5 129.13 252.82 129.13 0"/><polyline class="cls-2" points="204.16 488.42 204.16 286.65 155.3 252.82 155.3 0"/><polyline class="cls-2" points="329 0 328.84 239.62 258.44 272.31 258.44 485.78"/><polyline class="cls-2" points="361.16 0 361.16 239.62 292.22 272.31 292.22 485.78"/><polyline class="cls-2" points="393.33 0 393.33 239.62 323.36 272.31 323.3 485.78"/><polyline class="cls-1" points="129.13 710.91 129.13 887.96 129.13 710.91 283.1 710.91"/><polyline class="cls-1" points="102.97 690.39 102.97 887.96 102.97 690.39 283.1 690.39"/><polyline class="cls-1" points="76.8 670.37 76.8 887.96 76.8 670.37 283.1 670.37"/><polyline class="cls-2" points="425.81 887.94 425.81 635.56 219.11 636.44 219.11 523.58"/><line class="cls-2" x1="457.65" y1="509.61" x2="457.65" y2="887.96"/><line class="cls-2" x1="489.81" y1="509.61" x2="489.81" y2="887.96"/><line class="cls-2" x1="489.81" y1="343.12" x2="489.81" y2="0"/><line class="cls-2" x1="457.65" y1="343.12" x2="457.65" y2="0"/><polyline class="cls-2" points="425.81 0 425.81 288.99 387.62 327.48"/><circle class="cls-4" cx="489.81" cy="509.61" r="5.92"/><ellipse class="cls-4" cx="457.65" cy="509.61" rx="5.92" ry="6.13"/><ellipse class="cls-4" cx="387.62" cy="327.48" rx="5.92" ry="6.13"/><circle class="cls-4" cx="245.09" cy="781.33" r="4.44"/><circle class="cls-4" cx="219.11" cy="523.58" r="5.92"/><ellipse class="cls-4" cx="171.4" cy="488.42" rx="5.92" ry="6.13"/><circle class="cls-4" cx="139.24" cy="488.42" r="5.92"/><ellipse class="cls-4" cx="203.56" cy="488.42" rx="5.92" ry="6.13"/><ellipse class="cls-3" cx="245.09" cy="509.61" rx="5.92" ry="6.13"/><ellipse class="cls-3" cx="245.09" cy="541.77" rx="5.92" ry="6.13"/><ellipse class="cls-3" cx="245.09" cy="573.93" rx="5.92" ry="6.13"/><ellipse class="cls-3" cx="489.81" cy="349.04" rx="6.13" ry="5.92"/><ellipse class="cls-3" cx="457.65" cy="349.04" rx="6.13" ry="5.92"/><circle class="cls-4" cx="298.37" cy="781.33" r="4.44"/><line class="cls-1" x1="362.72" y1="442.24" x2="527.11" y2="442.24"/><circle class="cls-3" cx="358.28" cy="442.24" r="4.44"/><line class="cls-1" x1="363.61" y1="470.49" x2="527.11" y2="470.49"/><circle class="cls-3" cx="359.17" cy="470.49" r="4.44"/><line class="cls-1" x1="362.72" y1="414" x2="527.11" y2="414"/><circle class="cls-3" cx="358.28" cy="414" r="4.44"/><line class="cls-1" x1="362.72" y1="385.75" x2="527.11" y2="385.75"/><circle class="cls-3" cx="358.28" cy="385.75" r="4.44"/><circle class="cls-3" cx="312.92" cy="233.92" r="4.44"/><circle class="cls-3" cx="286.46" cy="233.92" r="4.44"/><circle class="cls-3" cx="260.01" cy="233.92" r="4.44"/><circle class="cls-3" cx="233.55" cy="233.92" r="4.44"/><circle class="cls-4" cx="128.88" cy="535" r="4.44"/><circle class="cls-4" cx="283.1" cy="670.37" r="4.44"/><circle class="cls-4" cx="283.1" cy="710.91" r="4.44"/><circle class="cls-4" cx="283.1" cy="690.39" r="4.44"/><circle class="cls-4" cx="128.88" cy="515.74" r="4.44"/><circle class="cls-4" cx="128.88" cy="573.52" r="4.44"/><circle class="cls-4" cx="128.88" cy="554.26" r="4.44"/><ellipse class="cls-3" cx="292.22" cy="491.7" rx="6.13" ry="5.92"/><ellipse class="cls-3" cx="258.33" cy="491.7" rx="6.13" ry="5.92"/><ellipse class="cls-3" cx="323.3" cy="491.7" rx="6.13" ry="5.92"/><circle class="cls-4" cx="218.45" cy="781.33" r="4.44"/><circle class="cls-4" cx="271.73" cy="781.33" r="4.44"/><circle class="cls-3" cx="40.56" cy="349.04" r="4.44"/><circle class="cls-3" cx="67.2" cy="349.04" r="4.44"/><circle class="cls-3" cx="13.91" cy="349.04" r="4.44"/><polyline class="cls-1" points="282.35 731.97 154.54 731.97 155.3 887.96 155.3 731.97"/><circle class="cls-4" cx="283.1" cy="731.97" r="4.44"/><polyline class="cls-1" points="50.64 887.96 50.64 655.94 181.03 655.94 181.03 524.14"/><polyline class="cls-1" points="24.47 887.96 24.47 638.91 161.77 638.91 161.77 524.14"/><circle class="cls-4" cx="161.77" cy="524.14" r="4.44"/><circle class="cls-4" cx="181.03" cy="524.14" r="4.44"/></g></svg>