<?xml version="1.0" encoding="UTF-8"?><svg id="Layer_2" xmlns="http://www.w3.org/2000/svg" viewBox="0 0 123.41 83.77"><defs><style>.cls-1{fill:#00357a;stroke-width:0px;}</style></defs><g id="SVG_clean_paths"><path class="cls-1" d="M77.91,28.43c-.02-1.89-.02-3.77-.02-5.66C44.52,33.39,28.34,42.25.08,27.87l.02,5.08c28.19,16.2,45.08,5.34,77.82-4.52ZM77.98,40.2c0-2.09,0-4.18-.02-6.27C44.53,44.56,28.4,53.46.11,39.06l.02,5.68c28.21,16.23,45.09,5.31,77.84-4.54ZM108.33,3.12C103.04.33,90.13-.19,81.39.05c0,0-3.89.12-3.89.12C44.9,9.53,30.1,20.55,0,3.68l.02,7.28H.02c28.21,16.21,45.16,5.37,77.91-4.49l.02,5.51C44.53,22.61,28.35,31.5.04,17.08l.02,5.17c28.18,16.19,45.13,5.37,77.88-4.49,0-.06,0-.11,0-.17,2.59-4.32,5.19-8.63,7.78-12.95l1.66,12.95c5.92-1.11,12.89,5.17,13.24,9.96,2.4.07,4.8.15,7.2.22,1.29,1.08,1.18,6.58-.16,7.61-2.34.06-4.68.12-7.02.18-2.1,10.14-18.11,10.69-21.99,9.98C45.32,55.97,28.49,65.51.15,50.89l.02,5.52c22.28,11.09,30.16,9.08,52.07,3.81v23.56h26.07v-30.42c11.63.18,28.81,1.03,36.8-7.36,13.58-11.19,9.94-36.32-6.78-42.87Z"/></g></svg>