<?xml version="1.0" encoding="UTF-8"?><svg id="Layer_2" xmlns="http://www.w3.org/2000/svg" viewBox="0 0 94.48 90.06"><defs><style>.cls-1{fill:#00357a;stroke-width:0px;}</style></defs><g id="SVG_clean_paths"><path class="cls-1" d="M90.63,39.39c-2.05-3.64-4.83-6.97-8.28-9.9l2.22-29.49-31.31,17.81c-1.98-.19-3.99-.29-6.02-.29-2.67,0-5.31.17-7.89.5L8.76,1.04l2.22,29.47c-2.92,2.68-5.31,5.65-7.12,8.88-2.56,4.55-3.85,9.4-3.85,14.4s1.3,9.85,3.85,14.4c2.43,4.33,5.89,8.2,10.28,11.5,8.88,6.68,20.63,10.36,33.11,10.36s24.23-3.68,33.11-10.36c4.39-3.31,7.85-7.18,10.28-11.5,2.56-4.55,3.85-9.4,3.85-14.4s-1.3-9.85-3.85-14.4ZM70.78,22.3c-2.81-1.26-5.71-2.27-8.69-3.02l16.07-9.14-1.16,15.45c-1.62-1.01-3.31-1.93-5.07-2.75-.38-.18-.76-.36-1.14-.53ZM30.79,19.72c-2.33.67-4.62,1.5-6.84,2.48-2.7,1.17-5.26,2.56-7.64,4.14l-1.15-15.3,15.63,8.68ZM47.24,84.43c-22.94,0-41.6-13.74-41.6-30.63,0-7.47,3.65-14.33,9.71-19.65l.33-.27c3.01-2.47,6.33-4.56,9.86-6.2.2-.09.4-.18.59-.27,4.01-1.75,8.45-3.01,13.17-3.69l1.64-.21c2.06-.23,4.16-.35,6.3-.35,1.54,0,3.06.06,4.56.18l1.79.17c5.76.65,11.13,2.18,15.86,4.39,2.84,1.36,5.56,3.01,8.08,4.92,7.01,5.49,11.31,12.87,11.31,20.97,0,16.89-18.66,30.63-41.6,30.63Z"/><rect class="cls-1" x="25.96" y="40.65" width="11.28" height="5.64"/><rect class="cls-1" x="57.25" y="40.65" width="11.28" height="5.64"/><path class="cls-1" d="M47.24,53.71c-9.31,0-16.61,4.77-16.61,10.86s7.3,10.86,16.61,10.86,16.61-4.77,16.61-10.86-7.3-10.86-16.61-10.86ZM56.4,68.93c-2.41,1.46-5.67,2.26-9.16,2.26s-6.75-.8-9.16-2.26c-1.2-.73-3.22-2.26-3.22-4.37s2.02-3.65,3.22-4.37c2.41-1.46,5.67-2.26,9.16-2.26s6.75.8,9.16,2.26c1.2.73,3.22,2.26,3.22,4.37s-2.02,3.65-3.22,4.37Z"/><rect class="cls-1" x="41.87" y="62.12" width="4.23" height="4.23"/><rect class="cls-1" x="48.38" y="62.12" width="4.23" height="4.23"/></g></svg>